<svg width="25" height="22" viewBox="0 0 25 22" fill="none" xmlns="http://www.w3.org/2000/svg">
<path d="M1.20612 9.99463H23.9946C24.5499 9.99463 25 10.445 25 11C25 11.555 24.5499 12.0054 23.9946 12.0054H1.20612C0.65084 12.0054 0.200736 11.5553 0.200736 11C0.200736 10.4447 0.650791 9.99463 1.20612 9.99463Z" fill="black"/>
<path d="M0.294643 10.2889L10.147 0.436173C10.5398 0.0437365 11.1758 0.0437365 11.5686 0.436173C11.9614 0.828952 11.9614 1.46568 11.5686 1.85812L2.42704 11L11.5686 20.1419C11.9614 20.5343 11.9614 21.1711 11.5686 21.5635C11.3722 21.7599 11.1152 21.8581 10.8578 21.8581C10.6004 21.8581 10.3434 21.7599 10.147 21.5635L0.294643 11.7108C-0.098136 11.3181 -0.098136 10.6813 0.294643 10.2889Z" fill="black"/>
</svg>
